<?xml version="1.0" encoding="utf-8"?>
<svg version="1.0" xmlns="http://www.w3.org/2000/svg" width="700px" height="180px" viewBox="78.417 10.124 598.799 166.128" preserveAspectRatio="none" xmlns:bx="https://boxy-svg.com"><path d="M 489.8 153.21 L 489.8 65.09 L 505.66 65.09 L 505.66 153.21 Z M 597.5 156.15 L 541.69 98.87 L 541.69 153.21 L 527.2 153.21 L 527.2 62.15 L 583.11 119.43 L 583.11 65.09 L 597.5 65.09 Z M 612.28 78.99 L 612.28 65.09 L 672.5 65.09 L 672.5 78.99 L 650.27 78.99 L 650.27 153.21 L 634.5 153.21 L 634.5 78.99 Z" style="fill: rgb(5, 5, 5); paint-order: stroke; stroke-width: 0px; text-wrap-mode: nowrap;"/><path d="M 84.37 152.26 L 84.37 64.13 L 111 64.13 Q 119.72 64.13 124.86 67.51 Q 130 70.89 132.2 75.64 Q 134.41 80.39 134.41 84.6 Q 134.41 88.81 132.69 92.38 Q 130.98 95.95 127.94 98.5 Q 134.41 102.12 138.37 108.49 Q 142.34 114.85 142.34 122.69 Q 142.34 130.01 138.71 136.83 Q 135.09 143.64 127.92 147.95 Q 120.75 152.26 110.22 152.26 Z M 99.45 138.35 L 108.75 138.35 Q 115.11 138.35 118.98 135.9 Q 122.85 133.46 124.61 129.67 Q 126.38 125.89 126.38 122.19 Q 126.38 118.57 124.67 114.82 Q 122.95 111.07 119.1 108.56 Q 115.25 106.04 108.75 106.04 L 99.45 106.04 Z M 99.45 94.68 L 108.75 94.68 Q 113.74 94.68 116.83 92.33 Q 119.91 89.98 119.91 85.47 Q 119.91 80.78 116.88 78.43 Q 113.86 76.08 109.14 76.08 L 99.45 76.08 Z M 158.59 152.26 L 158.59 64.13 L 174.45 64.13 L 174.45 152.26 Z M 188.15 152.26 L 225.07 78.04 L 192.46 78.04 L 192.46 64.13 L 247.78 64.13 L 210.97 138.35 L 245.82 138.35 L 245.82 152.26 Z M 261.88 152.26 L 261.88 64.13 L 286.94 64.13 Q 295.99 64.13 302.24 66.82 Q 308.49 69.52 312.34 73.91 Q 316.2 78.31 317.97 83.46 Q 319.75 88.61 319.75 93.61 Q 319.75 98.5 318.03 103.69 Q 316.32 108.88 312.4 113.24 Q 308.49 117.59 302.22 120.34 Q 295.95 123.08 286.94 123.08 L 276.96 123.08 L 276.96 152.26 Z M 276.96 109.57 L 286.06 109.57 Q 292.91 109.57 296.88 107.17 Q 300.85 104.77 302.61 101.11 Q 304.37 97.45 304.37 93.58 Q 304.37 89.88 302.7 86.2 Q 301.02 82.51 297.02 80.08 Q 293.02 77.64 286.06 77.64 L 276.96 77.64 Z" style="fill: rgb(5, 5, 5); text-wrap-mode: nowrap;"/><path d="M 356.491 153.711 C 354.241 152.411 348.991 147.411 345.541 143.311 C 336.591 132.661 330.791 119.811 328.791 106.311 C 327.941 100.711 328.391 85.411 329.541 80.861 C 333.041 66.611 339.341 55.161 349.141 45.211 C 356.041 38.211 360.441 35.061 369.541 30.611 C 375.341 27.761 382.691 25.161 386.091 24.761 L 388.141 24.461 L 388.491 28.961 C 388.791 33.811 388.691 34.361 387.341 34.361 C 385.741 34.361 377.291 37.361 373.591 39.211 C 364.241 43.911 356.741 50.461 347.791 61.861 C 342.741 68.261 337.291 78.361 337.291 81.261 L 337.341 83.111 L 339.341 80.761 L 341.341 78.411 L 343.241 79.761 C 344.241 80.511 348.541 83.811 352.741 87.111 C 356.941 90.411 360.991 93.561 361.741 94.111 C 364.691 96.311 370.241 100.861 370.541 101.361 C 370.891 101.911 366.741 107.661 363.341 111.461 C 360.391 114.761 360.591 114.861 346.291 103.661 C 342.291 100.511 339.391 98.561 339.141 98.811 C 338.291 99.661 339.441 107.911 341.291 114.361 C 343.441 121.911 348.941 131.711 354.291 137.461 L 356.691 140.111 L 360.891 138.711 C 366.191 136.911 376.541 132.911 380.841 130.961 C 384.741 129.211 384.741 129.211 387.991 118.811 L 390.291 111.511 L 393.941 112.161 C 400.091 113.211 406.291 115.711 406.291 117.111 C 406.291 117.511 405.641 118.911 404.891 120.211 C 401.191 126.361 394.291 138.811 394.291 139.261 C 394.291 139.861 393.291 140.311 382.041 145.011 C 366.341 151.561 359.191 154.361 358.341 154.361 C 357.891 154.311 357.091 154.061 356.491 153.711 L 356.491 153.711 Z" fill="#050505"/><path d="M 453.541 146.261 C 453.141 145.011 452.341 140.061 451.991 137.061 C 451.691 134.111 451.741 134.011 454.041 130.411 C 460.541 120.361 463.691 110.361 464.141 98.111 C 464.441 89.661 463.541 83.061 461.041 75.511 C 459.441 70.761 456.591 64.361 456.041 64.361 C 455.891 64.361 453.941 65.361 451.641 66.561 C 443.891 70.711 433.341 73.361 428.041 72.511 L 426.291 72.211 L 426.291 66.811 C 426.291 62.761 426.441 61.361 426.941 61.361 C 427.241 61.411 429.541 61.711 432.041 62.061 C 440.991 63.461 449.591 61.061 460.041 54.261 C 463.491 52.061 465.441 51.861 465.691 53.811 C 465.791 54.461 465.491 55.711 465.041 56.561 C 464.191 58.111 464.191 58.211 465.691 61.211 C 471.691 73.061 474.291 83.561 474.291 96.061 C 474.291 114.161 467.791 131.161 455.691 144.761 C 454.541 146.011 453.691 146.611 453.541 146.261 L 453.541 146.261 Z" fill="#050505"/><path d="M 444.591 49.761 C 439.891 45.161 435.741 42.261 429.341 39.161 C 426.741 37.911 424.541 36.811 424.441 36.711 C 424.341 36.611 424.791 34.461 425.341 31.911 C 426.341 27.711 426.491 27.361 427.491 27.661 C 429.391 28.261 433.441 30.361 440.041 34.261 C 445.491 37.511 447.441 38.961 451.991 43.511 C 457.391 48.861 457.391 48.911 456.491 49.911 C 455.391 51.161 450.141 53.911 449.191 53.761 C 448.841 53.711 446.741 51.911 444.591 49.761 L 444.591 49.761 Z" fill="#050505"/><ellipse style="fill: none; stroke-width: 14px; transform-box: fill-box; transform-origin: 50% 50%;" cx="401.456" cy="96.267" rx="66.371" ry="66.371" fill="#050505"/><text style="fill: rgb(51, 51, 51); font-family: Arial, sans-serif; font-size: 28px; white-space: pre;"><tspan x="71.163" y="-0.199">Enter your text here</tspan></text><defs><style>@import url(https://fonts.googleapis.com/css2?family=Afacad%3Aital%2Cwght%400%2C400..700%3B1%2C400..700&amp;display=swap);</style></defs><path d="M 458.546 50.438 L 445.4 56.527 C 444.743 55.809 444.067 55.102 443.371 54.407 C 437.478 48.514 428.086 42.142 422.012 39.345 L 426.596 27.176 C 434.867 30.892 447.202 38.44 453.27 44.508 C 455.122 46.36 456.885 48.342 458.546 50.438 Z M 388.241 24.661 L 389.992 38.694 C 376.673 42.137 364.411 49.404 359.407 54.407 C 354.5 59.315 350.539 64.772 347.644 70.788 C 350.294 68.409 351.997 68.807 356.691 72.361 C 358.841 74.011 360.841 75.361 361.141 75.361 C 361.391 75.361 363.291 73.261 365.341 70.761 C 370.991 63.711 376.591 58.061 380.541 55.411 C 387.041 51.061 395.491 48.361 404.891 47.611 C 413.441 46.961 419.291 50.411 419.291 56.211 C 419.291 57.261 418.641 59.511 417.791 61.261 C 416.141 64.761 416.191 66.361 417.941 67.611 C 418.541 68.011 419.541 68.361 420.141 68.361 L 421.291 68.361 L 421.291 76.811 C 421.291 81.461 421.541 87.011 421.841 89.111 C 422.141 91.211 422.241 93.061 422.091 93.211 C 421.541 93.811 418.841 92.211 416.741 90.061 C 414.391 87.661 413.291 87.311 413.291 88.861 C 413.291 91.811 417.141 96.711 425.091 103.861 C 434.841 112.661 440.741 118.411 442.391 120.761 C 443.991 123.061 444.791 125.611 445.741 131.111 C 446.091 133.061 446.541 135.761 446.791 137.111 C 447.691 142.111 448.241 145.661 448.541 148.661 L 448.891 151.711 L 447.929 152.436 L 448.027 152.995 C 435.452 163.22 418.621 169.76 401.389 169.76 C 397.261 169.76 392.292 168.911 387.148 167.588 C 383.109 166.893 379.769 165.958 376.291 164.611 C 373.658 163.604 370.692 162.291 368.301 161.126 C 365.756 160.048 363.419 158.971 361.41 157.959 L 378.526 151.657 C 384.601 153.768 394.282 155.76 401.389 155.76 C 414.011 155.76 424.99 152.267 434.377 145.862 C 434.067 143.732 433.501 140.381 432.591 135.161 C 431.441 128.761 431.191 128.061 429.691 126.511 C 427.791 124.511 420.291 118.811 416.291 116.261 C 409.691 112.061 398.691 107.411 395.291 107.361 C 393.541 107.361 391.791 106.811 391.791 106.311 C 391.791 106.061 392.641 105.461 393.691 104.911 C 395.291 104.111 395.841 103.411 396.691 101.011 C 399.191 94.361 406.641 83.161 413.441 76.061 C 417.591 71.711 418.841 69.361 417.091 69.361 C 416.691 69.361 415.941 68.761 415.441 68.061 C 414.541 66.861 414.341 66.811 413.241 67.361 C 411.291 68.411 405.741 73.061 402.991 75.911 C 400.041 79.011 395.641 84.711 394.491 86.961 C 393.391 89.111 393.091 88.361 393.691 84.761 C 393.991 83.011 394.491 79.811 394.791 77.611 C 395.391 73.311 396.041 68.761 396.541 65.711 C 396.891 63.561 397.441 63.261 402.991 62.061 C 404.941 61.661 406.691 61.061 406.891 60.711 C 407.641 59.461 405.841 58.611 402.041 58.461 C 394.291 58.061 383.091 62.211 377.341 67.611 C 373.391 71.311 367.291 78.711 367.291 79.761 C 367.291 80.411 368.991 82.061 371.991 84.411 C 377.541 88.761 378.591 90.261 377.841 92.361 C 377.291 94.061 374.891 97.361 374.241 97.361 C 373.748 97.361 350.764 79.319 345.784 75.116 C 343.317 81.604 342.018 88.691 342.018 96.389 C 342.018 113.287 348.279 127.242 359.407 138.371 C 362.147 141.111 365.058 143.556 368.143 145.684 L 352.859 151.401 C 351.701 150.389 350.582 149.344 349.508 148.27 C 336.615 135.377 328.018 116.147 328.018 96.389 C 328.018 76.631 336.615 57.401 349.508 44.508 C 359.312 34.704 373.663 27.605 388.241 24.661 Z M 460.76 96.389 C 460.76 85.499 457.276 72.959 452.448 64.482 L 464.574 59.301 C 470.94 70.282 474.76 83.218 474.76 96.389 C 474.76 115.511 465.823 136.349 453.617 149.216 L 450.358 130.572 C 456.803 121.166 460.76 109.051 460.76 96.389 Z M 420.791 28.161 C 420.791 35.761 414.641 41.911 407.041 41.911 C 399.441 41.911 393.241 35.761 393.241 28.161 C 393.241 20.561 399.441 14.411 407.041 14.411 C 414.641 14.411 420.791 20.561 420.791 28.161 Z" style=""/></svg>